<svg width="53" height="22" viewBox="0 0 53 22" fill="none" xmlns="http://www.w3.org/2000/svg">
<rect width="53" height="22" rx="11" fill="#D1D1D7"/>
<circle cx="12.5" cy="11.5" r="8.5" fill="#A9A9BC"/>
<path d="M32.5527 12.0098C32.5527 12.8457 32.4121 13.5762 32.1309 14.2012C31.8496 14.8223 31.4512 15.2969 30.9355 15.625C30.4199 15.9531 29.8184 16.1172 29.1309 16.1172C28.459 16.1172 27.8633 15.9531 27.3438 15.625C26.8242 15.293 26.4199 14.8223 26.1309 14.2129C25.8457 13.5996 25.6992 12.8906 25.6914 12.0859V11.4707C25.6914 10.6504 25.834 9.92578 26.1191 9.29688C26.4043 8.66797 26.8066 8.1875 27.3262 7.85547C27.8496 7.51953 28.4473 7.35156 29.1191 7.35156C29.8027 7.35156 30.4043 7.51758 30.9238 7.84961C31.4473 8.17773 31.8496 8.65625 32.1309 9.28516C32.4121 9.91016 32.5527 10.6387 32.5527 11.4707V12.0098ZM31.4336 11.459C31.4336 10.4473 31.2305 9.67188 30.8242 9.13281C30.418 8.58984 29.8496 8.31836 29.1191 8.31836C28.4082 8.31836 27.8477 8.58984 27.4375 9.13281C27.0312 9.67188 26.8223 10.4219 26.8105 11.3828V12.0098C26.8105 12.9902 27.0156 13.7617 27.4258 14.3242C27.8398 14.8828 28.4082 15.1621 29.1309 15.1621C29.8574 15.1621 30.4199 14.8984 30.8184 14.3711C31.2168 13.8398 31.4219 13.0801 31.4336 12.0918V11.459ZM38.9453 12.2324H35.3652V16H34.2402V7.46875H39.5254V8.39453H35.3652V11.3125H38.9453V12.2324ZM45.5781 12.2324H41.998V16H40.873V7.46875H46.1582V8.39453H41.998V11.3125H45.5781V12.2324Z" fill="#444463"/>
</svg>
