<svg width="53" height="22" viewBox="0 0 53 22" fill="none" xmlns="http://www.w3.org/2000/svg">
<rect width="53" height="22" rx="11" fill="#D1D1D7"/>
<circle cx="40.5" cy="10.5" r="8.5" fill="#D95732"/>
<path d="M17.5527 12.0098C17.5527 12.8457 17.4121 13.5762 17.1309 14.2012C16.8496 14.8223 16.4512 15.2969 15.9355 15.625C15.4199 15.9531 14.8184 16.1172 14.1309 16.1172C13.459 16.1172 12.8633 15.9531 12.3438 15.625C11.8242 15.293 11.4199 14.8223 11.1309 14.2129C10.8457 13.5996 10.6992 12.8906 10.6914 12.0859V11.4707C10.6914 10.6504 10.834 9.92578 11.1191 9.29688C11.4043 8.66797 11.8066 8.1875 12.3262 7.85547C12.8496 7.51953 13.4473 7.35156 14.1191 7.35156C14.8027 7.35156 15.4043 7.51758 15.9238 7.84961C16.4473 8.17773 16.8496 8.65625 17.1309 9.28516C17.4121 9.91016 17.5527 10.6387 17.5527 11.4707V12.0098ZM16.4336 11.459C16.4336 10.4473 16.2305 9.67188 15.8242 9.13281C15.418 8.58984 14.8496 8.31836 14.1191 8.31836C13.4082 8.31836 12.8477 8.58984 12.4375 9.13281C12.0312 9.67188 11.8223 10.4219 11.8105 11.3828V12.0098C11.8105 12.9902 12.0156 13.7617 12.4258 14.3242C12.8398 14.8828 13.4082 15.1621 14.1309 15.1621C14.8574 15.1621 15.4199 14.8984 15.8184 14.3711C16.2168 13.8398 16.4219 13.0801 16.4336 12.0918V11.459ZM25.7969 16H24.666L20.3711 9.42578V16H19.2402V7.46875H20.3711L24.6777 14.0723V7.46875H25.7969V16Z" fill="#D95732"/>
</svg>
